<?xml version="1.0" standalone="no"?>
<!DOCTYPE svg PUBLIC "-//W3C//DTD SVG 1.1//EN" "http://www.w3.org/Graphics/SVG/1.1/DTD/svg11.dtd" >
<svg xmlns="http://www.w3.org/2000/svg">
<metadata></metadata>
<defs>
<font id="dax-regularregular" horiz-adv-x="1081" >
<font-face units-per-em="2048" ascent="1638" descent="-410" />
<missing-glyph horiz-adv-x="565" />
<glyph horiz-adv-x="2048" />
<glyph horiz-adv-x="2048" />
<glyph unicode="&#xd;" horiz-adv-x="565" />
<glyph unicode=" "  horiz-adv-x="565" />
<glyph unicode="&#x09;" horiz-adv-x="565" />
<glyph unicode="&#xa0;" horiz-adv-x="565" />
<glyph unicode="!" horiz-adv-x="593" d="M203 107.5q0 48.5 34.5 83t82.5 34.5t83 -34.5t35 -82.5t-35 -83t-83 -35t-82.5 34.5t-34.5 83zM213 1409h213l-39 -946h-135z" />
<glyph unicode="&#x22;" horiz-adv-x="786" d="M141 1384q31 43 87 43t87 -43l-41 -512h-92zM469 1384q35 43 90 43t86 -43l-41 -512h-94z" />
<glyph unicode="#" d="M57 469v94h228l57 320h-211v92h227l76 434h107l-76 -434h240l75 434h107l-76 -434h213v-92h-229l-60 -320h215v-94h-231l-80 -469h-107l82 469h-239l-86 -469h-105l84 469h-211zM389 563h240l59 320h-242z" />
<glyph unicode="$" d="M160 59l47 125q106 -67 235.5 -67t203 73.5t73.5 183t-57.5 173t-202 119t-216 150.5t-71.5 232.5t93 247t251 127.5l-18 236h114l-18 -234q144 0 256 -73l-43 -109q-96 62 -214 62t-181.5 -68t-63.5 -177t60.5 -165.5t208 -115t217 -158t69.5 -244t-98 -255.5t-260 -134 l18 -250h-119l19 246q-188 0 -303 75z" />
<glyph unicode="%" horiz-adv-x="1748" d="M141 949q0 204 59.5 343.5t215.5 139.5t216 -140.5t60 -342.5t-59 -341t-216 -139t-216.5 138t-59.5 342zM264 951q0 -173 29 -281.5t123 -108.5t123.5 112.5t29.5 308.5q0 370 -151 370q-94 0 -124 -114t-30 -287zM586 12l479 1411l94 -26l-479 -1413zM1057 461 q0 203 59.5 341t214 138t216 -139t61.5 -342t-60.5 -342.5t-216.5 -139.5t-215 140.5t-59 343.5zM1180 462q0 -169 28.5 -279.5t121.5 -110.5t124 111.5t31 306.5q0 370 -154 370q-92 0 -121.5 -114.5t-29.5 -283.5z" />
<glyph unicode="&#x26;" horiz-adv-x="1267" d="M109 383q0 152 98 258.5t268 157.5q-133 39 -204.5 118.5t-71.5 206.5t103.5 216.5t279.5 89.5q84 0 161.5 -22t126.5 -52l-51 -105q-95 56 -209.5 56t-172.5 -54.5t-58 -153.5t75.5 -160.5t192.5 -61.5q233 0 535 159l51 -114q-120 -56 -227 -82v-781q-117 -79 -367 -79 t-390 107.5t-140 295.5zM303 407.5q0 -151.5 85 -230.5t231.5 -79t209.5 31v672q-287 -68 -406.5 -155t-119.5 -238.5z" />
<glyph unicode="'" horiz-adv-x="458" d="M141 1384q31 43 88 43t88 -43l-43 -512h-92z" />
<glyph unicode="(" horiz-adv-x="743" d="M139 587q0 261 105.5 510t341.5 535l88 -53q-160 -223 -250 -476t-90 -517q0 -519 340 -996l-88 -53q-229 283 -338 536t-109 514z" />
<glyph unicode=")" horiz-adv-x="743" d="M70 -410q340 482 340 996.5t-340 992.5l88 53q229 -281 337.5 -534.5t108.5 -512.5t-106.5 -510t-339.5 -538z" />
<glyph unicode="*" horiz-adv-x="864" d="M106 1380q0 37 26 62.5t62 25.5t60.5 -24.5t24.5 -62.5t-24.5 -62.5t-61.5 -24.5t-62 24.5t-25 61.5zM186 1104q0 37 26 62.5t61.5 25.5t60 -24.5t24.5 -62.5t-24.5 -62.5t-61.5 -24.5t-61.5 24.5t-24.5 61.5zM346 1552q0 37 25.5 62.5t61.5 25.5t60.5 -24.5t24.5 -62.5 t-24.5 -62.5t-61.5 -24.5t-61.5 25t-24.5 61zM358 1304q0 32 21.5 53t52.5 21t52.5 -21.5t21.5 -53t-21.5 -53t-52.5 -21.5t-52.5 21.5t-21.5 53.5zM504 1104q0 37 24.5 61.5t61.5 24.5t61.5 -24.5t24.5 -61.5t-24.5 -61.5t-61.5 -24.5t-61.5 24.5t-24.5 61.5zM586 1380 q0 37 24.5 61.5t61.5 24.5t61.5 -24.5t24.5 -61.5t-24.5 -61.5t-61.5 -24.5t-61.5 24.5t-24.5 61.5z" />
<glyph unicode="+" d="M147 623v122h330v359h125v-359h332v-122h-332v-359h-125v359h-330z" />
<glyph unicode="," horiz-adv-x="536" d="M25 -346l174 506q41 51 120 51q69 0 78 -51l-266 -506h-106z" />
<glyph unicode="-" horiz-adv-x="704" d="M121 618v144h463v-144h-463z" />
<glyph unicode="." horiz-adv-x="512" d="M137 109.5q0 48.5 35 83t84 34.5t83 -33.5t34 -82.5t-33 -84t-83 -35t-85 34.5t-35 83z" />
<glyph unicode="/" horiz-adv-x="1153" d="M33 -408l971 2038l116 -57l-970 -2038z" />
<glyph unicode="0" d="M113 706q0 292 97 508t329.5 216t331 -217.5t98.5 -509t-97.5 -507.5t-329.5 -216t-330.5 217t-98.5 509zM287 707q0 -605 254 -605q115 0 184.5 138.5t69.5 466.5q0 612 -254 612q-113 0 -183.5 -142.5t-70.5 -469.5z" />
<glyph unicode="1" d="M174 1192q174 23 282.5 82t157.5 135h125v-1409h-184v1184q-57 -37 -158.5 -64.5t-201.5 -36.5z" />
<glyph unicode="2" d="M82 0l498 707q80 113 106.5 186.5t26.5 146.5q0 254 -291 254q-136 0 -252 -57l-47 117q74 39 153.5 57.5t200.5 18.5q197 0 312.5 -103.5t115.5 -269.5q0 -163 -178 -400l-377 -507h572v-150h-840z" />
<glyph unicode="3" d="M92 53l51 123q102 -61 260 -61t241 76.5t83 216.5q0 176 -122 237.5t-281 61.5v102q158 0 257 79t99 195t-67.5 165.5t-174.5 49.5q-165 0 -264 -55l-47 113q128 74 319 74t303.5 -85t112.5 -222.5t-84 -218.5t-178 -113q135 -41 228.5 -130.5t93.5 -266t-133 -295.5 t-338 -119q-232 0 -359 73z" />
<glyph unicode="4" d="M113 322v116l569 971h172v-981h115v-106h-115v-322h-166v322h-575zM238 428h450v592l4 205q-39 -78 -108 -197z" />
<glyph unicode="5" d="M113 53l47 123q118 -63 258.5 -63t233.5 77.5t93 220t-90 228.5t-290 86q-74 0 -183 -16l60 700h657v-149h-528l-33 -433q61 6 117 7q240 0 361.5 -116t121.5 -302t-133 -311t-347 -125t-345 73z" />
<glyph unicode="6" d="M119 532.5q0 268.5 121.5 463t278.5 295t284 130.5l47 -121q-166 -55 -305 -167.5t-217 -327.5q104 37 194 37q195 0 322 -109.5t127 -306t-109.5 -321.5t-317.5 -125t-316.5 142t-108.5 410.5zM287 508q0 -190 64.5 -298t194.5 -108t191.5 92.5t61.5 225.5 q0 321 -307 321q-102 0 -187 -36q-18 -92 -18 -197z" />
<glyph unicode="7" d="M131 1260v149h873l-189 -440q-119 -279 -218 -549t-138 -420h-226l551 1260h-653z" />
<glyph unicode="8" d="M113 332q0 123 69.5 214t239.5 189q-145 84 -204.5 165t-59.5 194q0 145 111.5 240.5t272.5 95.5t271.5 -93.5t110.5 -240.5q0 -111 -59.5 -191t-205.5 -164q168 -100 239 -193t71 -214q0 -158 -120 -256t-304 -98t-308 94t-124 258zM274 336q0 -104 77 -171t190 -67 t186.5 65.5t73.5 170.5q0 104 -52 176t-212 164q-158 -90 -210.5 -162t-52.5 -176zM313 1100q0 -96 48.5 -155.5t183.5 -141.5q129 72 179 137.5t50 159.5t-63.5 157.5t-165.5 63.5t-167 -62.5t-65 -158.5z" />
<glyph unicode="9" d="M111 972.5q0 196.5 111.5 322.5t317.5 126t314.5 -142t108.5 -410.5t-122 -463t-278.5 -294.5t-283.5 -131l-48 118q219 74 341 203t182 295q-104 -37 -195 -37q-197 0 -322.5 108.5t-125.5 305zM281 985q0 -322 307 -321q98 0 188 36q17 83 17 197q0 190 -65 299 t-195 109t-191 -92.5t-61 -227.5z" />
<glyph unicode=":" horiz-adv-x="512" d="M137 109.5q0 48.5 35 83t84 34.5t83 -33.5t34 -82.5t-33 -84t-83 -35t-85 34.5t-35 83zM137 738q0 50 35 85t83 35t83 -35t35 -84t-34 -82.5t-83 -33.5t-84 32.5t-35 82.5z" />
<glyph unicode=";" horiz-adv-x="536" d="M25 -346l174 506q47 55 118 55t80 -55l-266 -506h-106zM162 738q0 50 34.5 85t83 35t83 -35t34.5 -83t-34.5 -82.5t-82.5 -34.5t-83 32.5t-35 82.5z" />
<glyph unicode="&#x3c;" d="M147 631v119l787 346v-135l-639 -271l639 -270v-133z" />
<glyph unicode="=" d="M147 440v123h787v-123h-787zM147 803v123h787v-123h-787z" />
<glyph unicode="&#x3e;" d="M147 287v133l639 270l-639 271v135l787 -346v-119z" />
<glyph unicode="?" horiz-adv-x="806" d="M86 1350q125 75 301 75t283.5 -90t107.5 -228t-93 -226t-202 -119l-22 -299h-135l-29 354q113 25 203 93.5t90 167.5t-60.5 158.5t-179 59.5t-213.5 -53zM276 109q0 49 35 83.5t83 34.5t83 -34.5t35 -83.5t-35 -84t-83 -35t-83 34.5t-35 84.5z" />
<glyph unicode="@" horiz-adv-x="1781" d="M135 455q0 395 268.5 686t649.5 291q264 0 428 -158t164 -411t-125 -491.5t-326 -238.5q-72 0 -108.5 43t-36.5 146q-113 -187 -318 -187q-117 0 -179.5 92t-62.5 228q0 188 115 373.5t292 185.5t241 -193l30 158h103l-70 -324q-51 -229 -51 -306t18.5 -105.5t65.5 -28.5 q121 0 223.5 215t102.5 434.5t-141.5 358.5t-370.5 139q-348 0 -586 -275.5t-238 -633.5q0 -315 183.5 -486.5t488.5 -171.5q221 0 374.5 73t299.5 228l45 -53q-145 -164 -313 -241.5t-406 -77.5q-348 0 -554 191t-206 540zM602 459q0 -100 46 -170t134 -70q143 0 228.5 158 t85.5 293t-53.5 198.5t-131.5 63.5q-141 0 -225 -161t-84 -312z" />
<glyph unicode="A" horiz-adv-x="1198" d="M39 0l477 1409h168l475 -1409h-194l-134 422h-483l-137 -422h-172zM381 535h420l-164 534q-27 84 -32 120t-9 50q-16 -67 -47 -170z" />
<glyph unicode="B" horiz-adv-x="1150" d="M158 57v1295q131 78 362 78t355 -96.5t124 -246t-81.5 -232.5t-192.5 -105q119 -27 223.5 -125.5t104.5 -243.5q0 -203 -138.5 -302t-375.5 -99t-381 77zM336 133q78 -33 199 -33q327 0 327 279q0 166 -101.5 240.5t-330.5 74.5h-94v-561zM336 788h92q213 0 301 66 t88 209q0 258 -295 258q-100 0 -186 -31v-502z" />
<glyph unicode="C" horiz-adv-x="978" d="M111 703.5q0 310.5 140 518.5t388 208q168 0 274 -78l-45 -111q-88 55 -196 55q-188 0 -276.5 -170t-88.5 -420.5t90 -417.5t273 -167q107 0 196 55l49 -119q-102 -77 -276 -77q-246 0 -387 206.5t-141 517z" />
<glyph unicode="D" horiz-adv-x="1218" d="M158 55v1297q141 78 364 78q287 0 436.5 -188.5t149.5 -526.5t-143.5 -536.5t-434.5 -198.5q-241 0 -372 75zM344 139q66 -26 168 -26h8q209 0 301 150.5t92 457.5q0 588 -395 588q-104 0 -174 -29v-1141z" />
<glyph unicode="E" horiz-adv-x="905" d="M158 0v1409h653v-127h-465v-491h418v-125h-418v-539h465v-127h-653z" />
<glyph unicode="F" horiz-adv-x="888" d="M158 0v1409h651v-127h-463v-491h416v-125h-416v-666h-188z" />
<glyph unicode="G" horiz-adv-x="1204" d="M111 704.5q0 348.5 169 537t422 188.5q214 0 330 -74l-55 -117q-89 57 -254 57q-201 0 -309.5 -148.5t-108.5 -438.5t110.5 -444t284.5 -154q120 0 177 32v529h-240v119h422v-734q-70 -41 -150 -59t-207 -18q-258 0 -424.5 188t-166.5 536.5z" />
<glyph unicode="H" horiz-adv-x="1222" d="M158 0v1409h188v-618h531v618h188v-1409h-188v666h-531v-666h-188z" />
<glyph unicode="I" horiz-adv-x="518" d="M164 0v1409h188v-1409h-188z" />
<glyph unicode="J" horiz-adv-x="518" d="M-90 -317q111 29 182.5 123t71.5 241v1362h188v-1352q0 -217 -126 -349t-316 -159v134z" />
<glyph unicode="K" horiz-adv-x="1062" d="M164 0v1409h186v-653l457 653h197l-482 -655l504 -754h-213l-459 729l-4 -729h-186z" />
<glyph unicode="L" horiz-adv-x="841" d="M164 0v1409h188v-1282h424v-127h-612z" />
<glyph unicode="M" horiz-adv-x="1601" d="M109 0l167 1409h199l283 -1018q18 -68 24 -100.5t13 -59.5q6 25 14 61t27 97l290 1020h199l168 -1409h-178l-109 1055q-4 49 -6 99t-4 67q-8 -31 -17.5 -69t-25.5 -97l-299 -1055h-125l-295 1057q-17 59 -39 164q-4 -31 -6 -66t-8 -98l-111 -1057h-161z" />
<glyph unicode="N" horiz-adv-x="1325" d="M158 0v1409h198l576 -989q33 -53 52.5 -94t27.5 -56l-2 125v1014h157v-1409h-163l-601 1028q-18 33 -45.5 86t-44.5 84v-74q0 -41 2 -100v-1024h-157z" />
<glyph unicode="O" horiz-adv-x="1239" d="M111 705q0 324 124.5 524.5t384 200.5t384 -201t124.5 -525.5t-123.5 -524t-383.5 -199.5t-385 200.5t-125 524.5zM301 708q0 -257 68.5 -423t250 -166t250 167t68.5 424t-70.5 426t-246.5 169t-248 -170t-72 -427z" />
<glyph unicode="P" horiz-adv-x="1075" d="M158 0v1352q131 78 361.5 78t351 -116t120.5 -306t-121.5 -312.5t-365.5 -122.5q-45 1 -98 7l-64 6v-586h-184zM342 700l61 -6q54 -4 78 -4q170 0 249 84t79 236t-73.5 229.5t-233.5 77.5q-100 0 -160 -27v-590z" />
<glyph unicode="Q" horiz-adv-x="1239" d="M111 709q0 322 123.5 521.5t385 199.5t385 -200t123.5 -523q0 -482 -268 -664l244 -307l-141 -125l-213 391q-66 -16 -129 -16q-260 0 -385 200.5t-125 522.5zM301 711q0 -258 67.5 -423t251 -165t252 166t68.5 426t-68.5 425t-249.5 165t-251 -168t-70 -426z" />
<glyph unicode="R" horiz-adv-x="1110" d="M162 0v1354q136 76 361 76t348.5 -110t123.5 -298t-116.5 -292.5t-311.5 -104.5l461 -625h-213l-463 657l-4 -657h-186zM348 698q41 -12 121 -12q340 0 340 316.5t-301 316.5q-104 0 -160 -31v-590z" />
<glyph unicode="S" horiz-adv-x="952" d="M88 57l49 131q105 -65 236 -65t202.5 71.5t71.5 179t-55 169t-204.5 121t-217.5 157t-68 213.5q0 164 110 280t288 116q183 0 288 -76l-45 -119q-105 65 -219.5 65t-175.5 -67.5t-61 -172.5t61.5 -162.5t211 -117t216 -162t66.5 -221.5q0 -184 -119 -300.5t-307 -116.5 q-206 0 -328 77z" />
<glyph unicode="T" horiz-adv-x="872" d="M61 1282v127h750v-127h-281v-1282h-188v1282h-281z" />
<glyph unicode="U" horiz-adv-x="1193" d="M158 401v1008h188v-1006q0 -129 75 -203.5t184.5 -74.5t184 74.5t74.5 203.5v1006h172v-1008q0 -182 -120.5 -303t-319.5 -121t-318.5 120t-119.5 304z" />
<glyph unicode="V" horiz-adv-x="1083" d="M49 1409h201l260 -991q12 -47 22.5 -97.5t18.5 -87.5l311 1176h178l-409 -1409h-164z" />
<glyph unicode="W" horiz-adv-x="1673" d="M74 1409h194l203 -1018q10 -51 15.5 -98t9.5 -64q8 59 34 162l244 1018h144l241 -1018q22 -94 29 -162q6 31 12 75t17 87l213 1018h174l-330 -1409h-166l-238 983q-10 45 -17 87t-13 71q-11 -72 -31 -158l-240 -983h-166z" />
<glyph unicode="X" horiz-adv-x="1062" d="M49 0l383 725l-342 684h205l237 -532l273 532h176l-350 -661l385 -748h-213l-275 584l-288 -584h-191z" />
<glyph unicode="Y" horiz-adv-x="1024" d="M35 1409h203l280 -637l295 637h180l-387 -784v-625h-188v625z" />
<glyph unicode="Z" horiz-adv-x="886" d="M49 0l518 1282h-485v127h723l-512 -1282h526v-127h-770z" />
<glyph unicode="[" horiz-adv-x="702" d="M160 -440v2048h440v-107h-278v-1833h280v-108h-442z" />
<glyph unicode="\" horiz-adv-x="1163" d="M33 1571l121 61l976 -2038l-120 -59z" />
<glyph unicode="]" horiz-adv-x="702" d="M100 -332h279v1833h-279v107h443v-2048h-443v108z" />
<glyph unicode="^" horiz-adv-x="1183" d="M195 981l301 393q39 51 96 51t96 -51l301 -393l-65 -68l-332 377l-332 -377z" />
<glyph unicode="_" d="M-20 -287h1122v-116h-1122v116z" />
<glyph unicode="`" horiz-adv-x="401" d="M-16 1503q12 35 60 35t73.5 -6t58.5 -27l143 -280h-102z" />
<glyph unicode="a" horiz-adv-x="1021" d="M90 305q0 203 162 293t455 121v67q0 121 -64.5 170.5t-186 49.5t-259.5 -70l-43 106q55 31 145 56.5t193 25.5q170 0 277.5 -85t107.5 -273v-709q-142 -77 -360 -77t-322.5 85t-104.5 240zM262 309q0 -225 262 -225q115 0 183 37v506q-229 -29 -337 -95.5t-108 -222.5z " />
<glyph unicode="b" horiz-adv-x="1079" d="M145 57v1551h179v-541q96 51 225 51q193 0 310.5 -148.5t117.5 -409.5t-130 -420.5t-372 -159.5q-208 0 -330 77zM324 123q52 -27 155 -27q164 0 241 124t77 333t-73 334t-220 125q-100 0 -180 -43v-846z" />
<glyph unicode="c" horiz-adv-x="841" d="M102 555q0 266 117 417.5t307 151.5q159 0 244 -73l-43 -105q-77 53 -164 53q-278 0 -278 -440q0 -201 70.5 -323.5t201.5 -122.5q91 0 168 53l45 -113q-77 -73 -255.5 -73t-295.5 154.5t-117 420.5z" />
<glyph unicode="d" horiz-adv-x="1079" d="M102 542q0 263 131.5 417.5t348.5 154.5q84 0 174 -24v518h178v-1551q-121 -77 -349 -77t-355.5 149.5t-127.5 412.5zM281 546q0 -206 75.5 -327t239.5 -121q113 0 160 31v860q-76 21 -138 21q-178 0 -257.5 -129t-79.5 -335z" />
<glyph unicode="e" horiz-adv-x="1069" d="M102 548.5q0 280.5 122 428t324 147.5t310.5 -134t108.5 -406l-695 -101q0 -184 90.5 -278t249.5 -94t269 63l47 -119q-125 -75 -342 -75t-350.5 144t-133.5 424.5zM266 580l529 79q0 349 -254 349q-127 0 -201 -105.5t-74 -322.5z" />
<glyph unicode="f" horiz-adv-x="634" d="M80 991v113h127v156q0 166 95 257t278 91v-115q-88 0 -140.5 -50t-52.5 -163v-176h193v-113h-193v-991h-180v991h-127z" />
<glyph unicode="g" horiz-adv-x="1077" d="M102 542.5q0 261.5 128 421.5t374 160q203 0 328 -77v-1070q0 -207 -112.5 -323.5t-311.5 -116.5q-221 0 -342 76l55 121q115 -66 257 -66t211 79t69 210v78q-80 -47 -221 -47q-199 0 -317 146.5t-118 408zM281 539q0 -219 72.5 -332t230.5 -113q95 0 174 45v846 q-60 31 -158 31q-319 0 -319 -477z" />
<glyph unicode="h" horiz-adv-x="1091" d="M145 0v1608h181v-561q131 67 250 67h4q193 0 279.5 -94t86.5 -232v-788h-180v782q0 98 -50 157.5t-176.5 59.5t-213.5 -55v-944h-181z" />
<glyph unicode="i" horiz-adv-x="493" d="M141 1416q0 42 31 71t75 29t74.5 -29t30.5 -71t-30.5 -70.5t-74.5 -28.5t-75 28.5t-31 70.5zM158 0v1104h180v-1104h-180z" />
<glyph unicode="j" horiz-adv-x="499" d="M-41 -336q203 74 203 387v1053h180v-1041q0 -225 -111.5 -362.5t-271.5 -155.5v119zM145 1417q0 41 31 70t76 29t75.5 -29t30.5 -71t-30.5 -70.5t-74.5 -28.5t-76 29.5t-32 70.5z" />
<glyph unicode="k" horiz-adv-x="974" d="M156 0v1608h176v-1016l397 512h189l-418 -516l463 -588h-205l-422 569l-4 -569h-176z" />
<glyph unicode="l" horiz-adv-x="497" d="M158 0v1608h180v-1608h-180z" />
<glyph unicode="m" horiz-adv-x="1712" d="M145 0v1047q162 77 388 77t333 -133q129 133 326.5 133t286 -96t88.5 -229v-799h-181v795q0 94 -49 152.5t-173.5 58.5t-217.5 -99v-907h-180v803q0 94 -61.5 149.5t-180.5 55.5q-70 0 -108.5 -7.5t-89.5 -29.5v-971h-181z" />
<glyph unicode="n" horiz-adv-x="1091" d="M145 0v1047q158 77 386.5 77t321.5 -95t93 -232v-797h-180v793q0 92 -51 153.5t-172 61.5t-217 -39v-969h-181z" />
<glyph unicode="o" horiz-adv-x="1067" d="M102 553q0 258 107.5 414.5t324.5 156.5t324 -155.5t107 -415.5t-107.5 -416.5t-322.5 -156.5t-324 157.5t-109 415.5zM283 551q0 -201 54 -324t198 -123q143 0 196 124t53 325t-53 329t-196 128t-197.5 -129t-54.5 -330z" />
<glyph unicode="p" horiz-adv-x="1079" d="M145 -440v1487q134 77 354.5 77t349 -148.5t128.5 -413.5t-130 -421.5t-351 -156.5q-94 0 -172 26v-450h-179zM324 119q59 -25 135 -25q166 0 252 122t86 344t-74 339t-242 117q-82 0 -157 -31v-866z" />
<glyph unicode="q" horiz-adv-x="1079" d="M102 539.5q0 260.5 126 422.5t376 162q205 0 330 -77v-1487h-176v475q-86 -51 -223 -51q-199 0 -316 147.5t-117 408zM281 539q0 -445 301 -445q96 0 176 45v846q-60 31 -158 31q-160 0 -239.5 -126t-79.5 -351z" />
<glyph unicode="r" horiz-adv-x="659" d="M145 0v1044q84 43 184.5 60.5t291.5 17.5l-43 -137q-49 14 -122 14t-130 -34v-965h-181z" />
<glyph unicode="s" horiz-adv-x="827" d="M78 59l49 119q74 -65 215 -65q90 0 147.5 55t57.5 136t-43 127t-165 92q-233 88 -233 300q0 129 91.5 216t238.5 87q146 0 258 -75l-47 -109q-84 62 -178 62t-142 -50.5t-48 -124.5t47 -118.5t168 -90.5q237 -92 237 -313q0 -131 -103.5 -227t-267.5 -96q-178 0 -282 75z " />
<glyph unicode="t" horiz-adv-x="657" d="M80 991v113h127v254l180 55v-309h193v-113h-193v-719q0 -72 34 -115.5t105 -43.5q16 0 54 8v-115q-61 -16 -99 -16q-139 0 -206.5 81t-67.5 197v723h-127z" />
<glyph unicode="u" horiz-adv-x="1071" d="M145 338v766h181v-772q0 -102 55 -165t172 -63t192 46v954h181v-1038q-155 -89 -372.5 -89t-313 94.5t-95.5 266.5z" />
<glyph unicode="v" horiz-adv-x="999" d="M59 1104h193l231 -791q14 -47 19.5 -83.5t9.5 -51.5q12 72 31 135l235 791h168l-358 -1104h-162z" />
<glyph unicode="w" horiz-adv-x="1579" d="M72 1104h184l193 -793q14 -57 17 -86.5t5 -44.5q6 33 15.5 69t15.5 62l223 793h156l217 -793q10 -41 15 -78.5t9 -52.5q11 66 27 133l201 791h163l-315 -1104h-156l-223 788q-14 49 -17 82t-5 48q-10 -62 -29 -130l-227 -788h-156z" />
<glyph unicode="x" horiz-adv-x="966" d="M49 0l342 571l-305 533h188l215 -404l224 404h170l-308 -518l343 -586h-199l-238 449l-245 -449h-187z" />
<glyph unicode="y" horiz-adv-x="999" d="M59 1104h193l227 -793q12 -43 17.5 -85t9.5 -56q12 73 33 141l239 793h168l-508 -1544h-194l184 440z" />
<glyph unicode="z" horiz-adv-x="854" d="M61 0l465 991h-430v113h660l-455 -991h471v-113h-711z" />
<glyph unicode="{" horiz-adv-x="757" d="M106 625v100q82 0 120 58.5t38 193.5v319q0 158 102.5 235t278.5 77v-99q-221 0 -221 -209v-376q0 -211 -170 -248q84 -23 127 -82t43 -172v-377q0 -109 54 -159t167 -50v-100q-178 0 -279.5 75.5t-101.5 237.5v320q0 137 -37 196.5t-121 59.5z" />
<glyph unicode="|" horiz-adv-x="466" d="M160 -440v2048h147v-2048h-147z" />
<glyph unicode="}" horiz-adv-x="757" d="M113 -164q223 0 223 209v377q0 210 168 250q-168 41 -168 252v376q0 109 -56.5 159t-166.5 50v99q178 0 279.5 -76t101.5 -236v-319q0 -137 36.5 -194.5t120.5 -57.5v-100q-82 0 -119.5 -59.5t-37.5 -196.5v-320q0 -162 -101.5 -237.5t-279.5 -75.5v100z" />
<glyph unicode="~" horiz-adv-x="1183" d="M172 653q33 76 77 118t90 47t67 5q72 0 179 -66.5t169 -66.5q16 0 52 5t75 42t61 92l70 -106q-23 -70 -72 -111q-66 -55 -170 -55q-66 0 -174.5 64.5t-171.5 64.5h-25q-110 -14 -163 -137z" />
<glyph unicode="&#xa1;" horiz-adv-x="593" d="M203 859q0 50 34.5 85t82.5 35t83 -35t35 -83t-35 -83t-83 -35t-82.5 33t-34.5 83zM213 -440l39 946h135l39 -946h-213z" />
<glyph unicode="&#xa2;" d="M180 702q0 210 95.5 338.5t256.5 151.5l-18 215h123l-14 -211q134 0 215 -61l-39 -95q-71 43 -164 43q-143 0 -212 -99t-69 -274t71 -275.5t206 -100.5q94 0 166 43l41 -103q-85 -61 -220 -61l17 -211h-125l18 217q-162 23 -255 148t-93 335z" />
<glyph unicode="&#xa3;" d="M119 676v106h168q-47 160 -47 277q0 158 113.5 264.5t301.5 106.5q190 0 299 -72l-47 -115q-98 55 -230 55t-196.5 -77.5t-64.5 -195t35 -243.5h278v-106h-258q18 -92 18 -183.5t-36.5 -195.5t-67.5 -147h592v-150h-836q201 243 201 485q0 84 -27 191h-196z" />
<glyph unicode="&#xa4;" d="M92 322l148 147q-78 100 -78 229t78 230l-148 147l72 72l147 -148q100 78 230 78q129 0 229 -78l148 148l71 -72l-147 -147q78 -100 78 -230q0 -129 -78 -229l147 -147l-71 -72l-148 147q-100 -78 -229 -78t-230 78l-147 -147zM279 699q0 -110 75.5 -187.5t185.5 -77.5 t186.5 77t76.5 187q0 111 -75.5 187t-186.5 76t-186.5 -76t-75.5 -186z" />
<glyph unicode="&#xa5;" d="M70 1409h190l285 -653l299 653h168l-248 -508l221 14v-92l-250 19l-102 -207l352 14v-94l-356 20v-575h-174v575l-361 -20v94l357 -14l-103 207l-254 -19v92l225 -14z" />
<glyph unicode="&#xa6;" horiz-adv-x="466" d="M160 369h147v-809h-147v809zM160 799v809h147v-809h-147z" />
<glyph unicode="&#xa7;" d="M156 553q0 198 239 350q-66 63 -93.5 121.5t-27.5 132.5q0 111 86 188.5t220 77.5q155 0 254 -69l-46 -101q-85 56 -172.5 56t-135.5 -40t-48 -104.5t28.5 -116t110.5 -118.5l166 -142q109 -92 150 -166.5t41 -177.5q0 -197 -244 -342q84 -74 113.5 -138t29.5 -134 q0 -123 -93 -205t-240 -82q-163 0 -271 74l49 113q83 -64 178 -64t152 43t57 107.5t-21.5 107.5t-92.5 105l-211 178q-100 86 -139 165t-39 181zM297 578q0 -80 31.5 -139.5t105.5 -123.5l166 -141q82 51 129 109.5t47 140.5t-24.5 135t-102.5 121l-178 151 q-174 -106 -174 -253z" />
<glyph unicode="&#xa8;" horiz-adv-x="401" d="M-61 1350q0 37 27.5 62.5t65.5 25.5t65.5 -26t27.5 -62q0 -37 -26.5 -61.5t-66.5 -24.5t-66.5 24.5t-26.5 61.5zM276 1350q0 37 28 62.5t66 25.5t64.5 -24.5t26.5 -62.5t-26.5 -62.5t-65.5 -24.5t-66 24.5t-27 61.5z" />
<glyph unicode="&#xa9;" horiz-adv-x="1689" d="M121 702q0 301 212 513t512 212t512 -211.5t212 -512t-212 -512t-513 -211.5t-512 210.5t-211 511.5zM209 703.5q0 -263.5 186.5 -449.5t449.5 -186t449.5 186t186.5 448t-185.5 449.5t-449.5 187.5t-450.5 -186t-186.5 -449.5zM420 707.5q0 179.5 126 305.5t304 126 q191 0 328 -154l-70 -63q-47 57 -115.5 91t-142.5 34q-139 0 -237.5 -98.5t-98.5 -239.5t97.5 -240.5t244.5 -99.5t250 120l74 -57q-129 -156 -318.5 -156t-315.5 126t-126 305.5z" />
<glyph unicode="&#xaa;" horiz-adv-x="722" d="M88 922q0 129 106.5 181t301.5 71v38q0 72 -39 99.5t-121 27.5t-166 -41l-31 76q96 49 221 49q256 0 256 -221v-434q-95 -51 -240.5 -51t-216.5 54t-71 151zM207 934q0 -82 45 -111.5t122 -29.5t122 20v291q-156 -18 -222.5 -53t-66.5 -117z" />
<glyph unicode="&#xab;" horiz-adv-x="1052" d="M123 684l309 446l96 -63l-262 -383l262 -383l-96 -63zM500 684l309 446l96 -63l-262 -383l262 -383l-96 -63z" />
<glyph unicode="&#xac;" d="M147 627v123h787v-451h-129v328h-658z" />
<glyph unicode="&#xad;" horiz-adv-x="704" d="M121 618v144h463v-144h-463z" />
<glyph unicode="&#xae;" horiz-adv-x="1689" d="M121 702q0 301 212 513t512 212t512 -211.5t212 -512t-212 -512t-513 -211.5t-512 210.5t-211 511.5zM209 703.5q0 -263.5 186.5 -449.5t449.5 -186t449.5 186t186.5 448t-185.5 449.5t-449.5 187.5t-450.5 -186t-186.5 -449.5zM618 285v835q82 41 202 41t202 -62.5 t82 -175t-70.5 -175t-183.5 -62.5l291 -401h-115l-281 395h-30v-395h-97zM715 748h76q94 0 154.5 40.5t60.5 130t-58.5 126t-126 36.5t-106.5 -16v-317z" />
<glyph unicode="&#xb0;" horiz-adv-x="860" d="M123 1124q0 127 90 217.5t217 90.5t217 -90.5t90 -217.5t-90 -217t-217 -90t-217 90t-90 217zM219 1124q0 -88 61.5 -149.5t149.5 -61.5t149.5 61.5t61.5 149.5t-61.5 149.5t-149.5 61.5t-149.5 -61.5t-61.5 -149.5z" />
<glyph unicode="&#xb1;" d="M147 145v119h787v-119h-787zM147 745v119h330v350h125v-350h332v-119h-332v-354h-125v354h-330z" />
<glyph unicode="&#xb2;" horiz-adv-x="753" d="M98 555l312 430q77 109 77 180.5t-43 111.5t-123 40t-145 -33l-39 88q92 49 217 49t198 -64.5t73 -170.5q0 -100 -109 -242l-215 -278h330v-111h-533z" />
<glyph unicode="&#xb3;" horiz-adv-x="753" d="M109 592l36 92q74 -39 162 -39t134 42t46 129t-70.5 122t-168.5 35v82q98 0 154.5 44t56.5 109q0 117 -137 117q-78 0 -148 -35l-37 84q85 49 198 49t184 -53t71 -147q0 -123 -139 -189q174 -62 174 -229q0 -119 -83 -191.5t-213 -72.5t-220 51z" />
<glyph unicode="&#xb4;" horiz-adv-x="401" d="M82 1225l143 280q57 35 119 35q61 0 74 -37l-234 -278h-102z" />
<glyph unicode="&#xb5;" horiz-adv-x="1091" d="M145 -440v1544h181v-944q102 -57 229 -57.5t211 44.5v957h180v-1036q-78 -43 -157.5 -62.5t-211 -19.5t-251.5 69v-495h-181z" />
<glyph unicode="&#xb6;" d="M57 1030q0 195 127 287t326 92h485v-92h-63v-1757h-129v1757h-277v-1757h-129v1106q-156 16 -248 114.5t-92 249.5z" />
<glyph unicode="&#xb8;" horiz-adv-x="401" d="M-61 -401l41 69q176 0 262 13.5t86 62.5q0 43 -55.5 54.5t-204.5 11.5l41 63q61 6 110 6q244 0 244 -133q0 -88 -127 -117.5t-397 -29.5z" />
<glyph unicode="&#xb9;" horiz-adv-x="753" d="M152 1276q196 23 270 133h90v-854h-131v688q-113 -39 -217 -39z" />
<glyph unicode="&#xba;" horiz-adv-x="722" d="M72 1075q0 160 71.5 256t217.5 96t218 -97t72 -257t-72 -257t-217 -97t-217.5 98t-72.5 258zM201 1076q0 -122 34.5 -194.5t125.5 -72.5t126 72.5t35 194.5t-34 197t-126 75t-126.5 -75t-34.5 -197z" />
<glyph unicode="&#xbb;" horiz-adv-x="1052" d="M147 301l263 383l-263 383l99 63l309 -446l-309 -446zM526 301l260 383l-260 383l97 63l307 -446l-307 -446z" />
<glyph unicode="&#xbc;" horiz-adv-x="1636" d="M98 1276q96 12 169 49t104 84h90v-854h-131v688q-115 -39 -219 -39zM408 16l677 1422l109 -45l-678 -1424zM942 190v84l348 582h121v-582h70v-84h-70v-190h-123v190h-346zM1036 274h252v334l2 107q-10 -21 -57 -107z" />
<glyph unicode="&#xbd;" horiz-adv-x="1636" d="M98 1276q96 12 169 49t104 84h90v-854h-131v688q-115 -39 -219 -39zM375 16l678 1422l108 -45l-678 -1424zM952 0l312 424q47 63 61 105t14 89q0 147 -168 148q-69 0 -135 -37l-37 88q90 51 211 51t194 -66.5t73 -172.5q0 -110 -107 -246l-217 -272h328v-111h-529z" />
<glyph unicode="&#xbe;" horiz-adv-x="1636" d="M109 592l36 92q74 -39 163 -39q179 0 179 160q0 100 -68.5 134t-168.5 34v82q96 0 152.5 44t56.5 106q0 120 -135 120q-78 0 -148 -35l-39 84q90 49 201.5 49t181.5 -53t70 -147q0 -122 -137 -189q74 -25 123 -80t49 -161.5t-81 -179t-210 -72.5q-139 0 -225 51zM471 16 l678 1422l111 -45l-680 -1424zM952 190v84l348 582h121v-582h70v-84h-70v-190h-123v190h-346zM1047 274h251v334l2 107l-57 -107z" />
<glyph unicode="&#xbf;" horiz-adv-x="806" d="M86 -139.5q0 139.5 93 227.5t202 121l22 299h136l28 -356q-115 -27 -204 -93.5t-89 -167t60.5 -159t178 -58.5t214.5 54l51 -107q-117 -76 -298 -76t-287.5 88t-106.5 227.5zM352 861q0 48 35 83t83 35t83 -35t35 -83t-35 -83t-83 -35t-83 35t-35 83z" />
<glyph unicode="&#xc0;" horiz-adv-x="1198" d="M39 0l477 1409h168l475 -1409h-194l-134 422h-483l-137 -422h-172zM322 1794q12 35 75 35t115 -33l145 -280h-102zM381 535h420l-164 534q-27 82 -32 118t-9 48q-19 -72 -47 -166z" />
<glyph unicode="&#xc1;" horiz-adv-x="1198" d="M39 0l477 1409h168l475 -1409h-194l-134 422h-483l-137 -422h-172zM381 535h420l-164 534q-27 82 -32 118t-9 48q-19 -72 -47 -166zM522 1516l144 280q57 35 118 35t74 -37l-233 -278h-103z" />
<glyph unicode="&#xc2;" horiz-adv-x="1198" d="M39 0l477 1409h168l475 -1409h-194l-134 422h-483l-137 -422h-172zM330 1556l202 207q29 31 68 31t70 -31l202 -207l-53 -43l-217 162l-221 -162zM381 535h420l-164 534q-27 82 -32 118t-9 48q-19 -72 -47 -166z" />
<glyph unicode="&#xc3;" horiz-adv-x="1198" d="M39 0l477 1409h168l475 -1409h-194l-134 422h-483l-137 -422h-172zM309 1612q23 55 55.5 83.5t94 28.5t139.5 -43t124 -36.5t69.5 30t37.5 60.5l58 -84q-30 -93 -139 -107q-8 -2 -39 -2t-119 39t-130 39t-64.5 -34t-33.5 -56zM381 535h420l-164 534q-27 82 -32 118t-9 48 q-19 -72 -47 -166z" />
<glyph unicode="&#xc4;" horiz-adv-x="1198" d="M39 0l477 1409h168l475 -1409h-194l-134 422h-483l-137 -422h-172zM340 1637q0 38 27.5 63.5t65.5 25.5t64.5 -24.5t26.5 -62.5t-27.5 -63.5t-65.5 -25.5t-64.5 24.5t-26.5 62.5zM381 535h420l-164 534q-27 82 -32 118t-9 48q-19 -72 -47 -166zM676 1638q0 37 27.5 62.5 t65.5 25.5t65.5 -25.5t27.5 -62.5t-27.5 -62.5t-65.5 -25.5t-65.5 26t-27.5 62z" />
<glyph unicode="&#xc5;" horiz-adv-x="1198" d="M39 0l477 1409h168l475 -1409h-194l-134 422h-483l-137 -422h-172zM381 535h420l-164 534q-27 82 -32 118t-9 48q-19 -72 -47 -166zM436 1676.5q0 68.5 48 116.5t117 48t117 -48t48 -117t-48 -117t-117 -48t-117 48.5t-48 117zM504 1675q0 -41 27.5 -68.5t68.5 -27.5 t68.5 27.5t27.5 68.5t-27.5 69t-68.5 28t-68.5 -28t-27.5 -69z" />
<glyph unicode="&#xc6;" horiz-adv-x="1525" d="M10 0l588 1409h745v-127h-538l125 -491h413v-125h-385l138 -539h385v-127h-539l-98 422h-492l-168 -422h-174zM397 537h428l-133 583q-14 61 -20 131q-11 -44 -45 -133z" />
<glyph unicode="&#xc7;" horiz-adv-x="978" d="M111 703.5q0 310.5 140 518.5t388 208q168 0 274 -78l-45 -111q-88 55 -196 55q-188 0 -276.5 -170t-88.5 -420.5t90 -417.5t273 -167q107 0 196 55l49 -119q-102 -77 -276 -77q-246 0 -387 206.5t-141 517zM285 -401l43 69q174 0 260 13.5t86 62.5q0 43 -55.5 54.5 t-204.5 11.5l41 63q61 6 110 6q244 0 244 -133q0 -88 -126 -117.5t-398 -29.5z" />
<glyph unicode="&#xc8;" horiz-adv-x="903" d="M158 0v1409h653v-127h-465v-491h418v-125h-418v-539h465v-127h-653zM238 1794q14 35 77 35t115 -33l143 -280h-102z" />
<glyph unicode="&#xc9;" horiz-adv-x="903" d="M158 0v1409h653v-127h-465v-491h418v-125h-418v-539h465v-127h-653zM391 1516l144 280q57 35 118 35t74 -37l-233 -278h-103z" />
<glyph unicode="&#xca;" horiz-adv-x="903" d="M158 0v1409h653v-127h-465v-491h418v-125h-418v-539h465v-127h-653zM203 1556l200 207q31 31 70 31t70 -31l200 -207l-51 -43l-219 162l-219 -162z" />
<glyph unicode="&#xcb;" horiz-adv-x="903" d="M158 0v1409h653v-127h-465v-491h418v-125h-418v-539h465v-127h-653zM215 1637q0 38 27.5 63.5t65.5 25.5t65.5 -25.5t27.5 -62.5t-27.5 -62.5t-66.5 -25.5t-65.5 24.5t-26.5 62.5zM551 1638q0 37 27.5 62.5t65.5 25.5t65.5 -25.5t27.5 -62.5t-27.5 -62.5t-65.5 -25.5 t-65.5 26t-27.5 62z" />
<glyph unicode="&#xcc;" horiz-adv-x="518" d="M31 1794q14 35 78 35q63 0 114 -33l144 -280h-103zM166 0v1409h188v-1409h-188z" />
<glyph unicode="&#xcd;" horiz-adv-x="518" d="M152 1516l143 280q57 35 118.5 35t73.5 -37l-235 -278h-100zM164 0v1409h188v-1409h-188z" />
<glyph unicode="&#xce;" horiz-adv-x="518" d="M-12 1556l202 207q29 31 68 31t70 -31l200 -207l-51 -43l-217 162l-221 -162zM164 0v1409h188v-1409h-188z" />
<glyph unicode="&#xcf;" horiz-adv-x="518" d="M-2 1637q0 38 27.5 63.5t65.5 25.5t64.5 -24.5t26.5 -62.5t-27.5 -63.5t-65.5 -25.5t-64.5 24.5t-26.5 62.5zM164 0v1409h188v-1409h-188zM334 1638q0 37 27.5 62.5t65.5 25.5t65.5 -25.5t27.5 -62.5t-27.5 -62.5t-65.5 -25.5t-65.5 26t-27.5 62z" />
<glyph unicode="&#xd0;" horiz-adv-x="1273" d="M86 711v102h125v539q141 78 364 78q289 0 438.5 -187.5t149.5 -525.5t-144 -537.5t-435 -199.5q-250 0 -373 77v654h-125zM395 137q75 -26 178 -26q207 0 301.5 152.5t94.5 457.5q-1 588 -400 588q-106 0 -174 -27v-469h236v-102h-236v-574z" />
<glyph unicode="&#xd1;" horiz-adv-x="1325" d="M158 0v1409h198l576 -989q33 -53 52.5 -94t27.5 -56l-2 125v1014h157v-1409h-163l-601 1028q-18 33 -45.5 86t-44.5 84v-74q0 -41 2 -100v-1024h-157zM373 1612q23 55 55.5 83.5t90.5 28.5t143.5 -43t127.5 -37q75 12 105 91l55 -84q-30 -93 -139 -107q-8 -2 -39 -2 t-118 39t-127 39t-62.5 -26.5t-38.5 -63.5z" />
<glyph unicode="&#xd2;" horiz-adv-x="1239" d="M111 705q0 324 124.5 524.5t384 200.5t384 -201t124.5 -525.5t-123.5 -524t-383.5 -199.5t-385 200.5t-125 524.5zM301 708q0 -257 68.5 -423t250 -166t250 167t68.5 424t-70.5 426t-246.5 169t-248 -170t-72 -427zM379 1794q14 35 66.5 35t75 -7t50.5 -26l144 -280h-103 z" />
<glyph unicode="&#xd3;" horiz-adv-x="1239" d="M111 705q0 324 124.5 524.5t384 200.5t384 -201t124.5 -525.5t-123.5 -524t-383.5 -199.5t-385 200.5t-125 524.5zM301 708q0 -257 68.5 -423t250 -166t250 167t68.5 424t-70.5 426t-246.5 169t-248 -170t-72 -427zM514 1516l143 280q57 35 119 35q61 0 74 -37l-234 -278 h-102z" />
<glyph unicode="&#xd4;" horiz-adv-x="1239" d="M111 705q0 324 124.5 524.5t384 200.5t384 -201t124.5 -525.5t-123.5 -524t-383.5 -199.5t-385 200.5t-125 524.5zM301 708q0 -257 68.5 -423t250 -166t250 167t68.5 424t-70.5 426t-246.5 169t-248 -170t-72 -427zM350 1556l201 207q31 31 69.5 31t69.5 -31l201 -207 l-51 -43l-219 162l-220 -162z" />
<glyph unicode="&#xd5;" horiz-adv-x="1239" d="M111 705q0 324 124.5 524.5t384 200.5t384 -201t124.5 -525.5t-123.5 -524t-383.5 -199.5t-385 200.5t-125 524.5zM301 708q0 -257 68.5 -423t250 -166t250 167t68.5 424t-70.5 426t-246.5 169t-248 -170t-72 -427zM326 1612q20 51 54 81.5t89 30.5t143 -42t130 -36 q72 9 104 89l57 -84q-41 -109 -166 -109q-43 0 -131 39t-129 39q-69 0 -98 -90z" />
<glyph unicode="&#xd6;" horiz-adv-x="1239" d="M111 705q0 324 124.5 524.5t384 200.5t384 -201t124.5 -525.5t-123.5 -524t-383.5 -199.5t-385 200.5t-125 524.5zM301 708q0 -257 68.5 -423t250 -166t250 167t68.5 424t-70.5 426t-246.5 169t-248 -170t-72 -427zM358 1637q0 38 28 63.5t66 25.5t65.5 -25.5t27.5 -62.5 t-27.5 -62.5t-66.5 -25.5t-66 24.5t-27 62.5zM696 1637q0 38 28 63.5t65.5 25.5t64.5 -24.5t27 -62.5t-28 -63.5t-66 -25.5t-64.5 24.5t-26.5 62.5z" />
<glyph unicode="&#xd7;" d="M137 1040l86 82l318 -352l315 352l86 -82l-319 -358l321 -358l-86 -82l-317 352l-316 -350l-86 82l320 356z" />
<glyph unicode="&#xd8;" horiz-adv-x="1249" d="M115 699q0 332 125 531.5t385 199.5q201 0 327 -136l109 172l61 -39l-121 -190q134 -189 134 -523.5t-124 -534t-386 -199.5q-210 0 -334 139l-109 -168l-61 39l121 188q-127 189 -127 521zM293 711q0 -223 57 -363l518 813q-83 154 -252 154t-246 -174t-77 -430z M379 260q86 -151 246 -151q184 0 257.5 171t73.5 431q0 217 -59 360z" />
<glyph unicode="&#xd9;" horiz-adv-x="1193" d="M158 401v1008h188v-1006q0 -129 75 -203.5t184.5 -74.5t184 74.5t74.5 203.5v1006h172v-1008q0 -182 -120.5 -303t-319.5 -121t-318.5 120t-119.5 304zM387 1794q14 35 78 35q63 0 115 -33l143 -280h-102z" />
<glyph unicode="&#xda;" horiz-adv-x="1193" d="M158 401v1008h188v-1006q0 -129 75 -203.5t184.5 -74.5t184 74.5t74.5 203.5v1006h172v-1008q0 -182 -120.5 -303t-319.5 -121t-318.5 120t-119.5 304zM500 1516l143 280q57 35 118.5 35t74.5 -37l-236 -278h-100z" />
<glyph unicode="&#xdb;" horiz-adv-x="1193" d="M158 401v1008h188v-1006q0 -129 75 -203.5t184.5 -74.5t184 74.5t74.5 203.5v1006h172v-1008q0 -182 -120.5 -303t-319.5 -121t-318.5 120t-119.5 304zM332 1556l200 207q31 31 70 31t70 -31l200 -207l-51 -43l-219 162l-219 -162z" />
<glyph unicode="&#xdc;" horiz-adv-x="1193" d="M158 401v1008h188v-1006q0 -129 75 -203.5t184.5 -74.5t184 74.5t74.5 203.5v1006h172v-1008q0 -182 -120.5 -303t-319.5 -121t-318.5 120t-119.5 304zM346 1638q0 37 27.5 62.5t65.5 25.5t65.5 -25.5t27.5 -62.5t-27.5 -62.5t-65.5 -25.5t-65.5 26t-27.5 62zM684 1637 q0 38 27.5 63.5t65.5 25.5t65.5 -25.5t27.5 -62.5t-27.5 -62.5t-66.5 -25.5t-65.5 24.5t-26.5 62.5z" />
<glyph unicode="&#xdd;" horiz-adv-x="1024" d="M35 1409h205l280 -637l295 637h178l-387 -784v-625h-188v625zM432 1516l143 280q57 35 118.5 35t74.5 -37l-233 -278h-103z" />
<glyph unicode="&#xde;" d="M158 0v1409h186v-250q105 27 166 27q231 0 352 -120t121 -313.5t-143 -306t-432 -112.5l-64 4v-338h-186zM344 455l57 -6q45 -5 74 -5q162 0 244 84t82 230.5t-82 232.5t-223 86q-71 0 -152 -22v-600z" />
<glyph unicode="&#xdf;" horiz-adv-x="1126" d="M152 0v1087q0 221 96 380t315 159q186 0 288.5 -129t102.5 -323q0 -93 -28 -193q-109 -14 -164 -59t-55 -115.5t30.5 -112t119.5 -98.5t134 -126t45 -165q0 -135 -100 -227t-250 -92q-129 0 -205 49l39 117q59 -33 143.5 -33t138.5 52t54 129t-30.5 120t-115.5 96 q-169 105 -169 264q0 100 59 165t162 93q16 50 16 136q0 154 -49 242.5t-171 88.5t-174 -108.5t-52 -300.5v-1096h-180z" />
<glyph unicode="&#xe0;" horiz-adv-x="1021" d="M90 305q0 203 162 293t455 121v67q0 121 -64.5 170.5t-186 49.5t-259.5 -70l-43 106q55 31 145 56.5t193 25.5q170 0 277.5 -85t107.5 -273v-709q-142 -77 -360 -77t-322.5 85t-104.5 240zM262 309q0 -225 262 -225q115 0 183 37v506q-229 -29 -337 -95.5t-108 -222.5z M285 1503q14 35 66 35t75 -7t51 -26l144 -280h-103z" />
<glyph unicode="&#xe1;" horiz-adv-x="1021" d="M90 305q0 203 162 293t455 121v67q0 121 -64.5 170.5t-186 49.5t-259.5 -70l-43 106q55 31 145 56.5t193 25.5q170 0 277.5 -85t107.5 -273v-709q-142 -77 -360 -77t-322.5 85t-104.5 240zM262 309q0 -225 262 -225q115 0 183 37v506q-229 -29 -337 -95.5t-108 -222.5z M444 1225l144 280q57 35 119 35q61 0 73 -37l-233 -278h-103z" />
<glyph unicode="&#xe2;" horiz-adv-x="1021" d="M90 305q0 203 162 293t455 121v67q0 121 -64.5 170.5t-186 49.5t-259.5 -70l-43 106q55 31 145 56.5t193 25.5q170 0 277.5 -85t107.5 -273v-709q-142 -77 -360 -77t-322.5 85t-104.5 240zM242 1268l202 205q31 31 70 30.5t68 -30.5l202 -205l-51 -45l-219 161l-219 -161 zM262 309q0 -225 262 -225q115 0 183 37v506q-229 -29 -337 -95.5t-108 -222.5z" />
<glyph unicode="&#xe3;" horiz-adv-x="1021" d="M90 305q0 203 162 293t455 121v67q0 121 -64.5 170.5t-186 49.5t-259.5 -70l-43 106q55 31 145 56.5t193 25.5q170 0 277.5 -85t107.5 -273v-709q-142 -77 -360 -77t-322.5 85t-104.5 240zM221 1323q20 51 54 81t93.5 30t139.5 -40t119 -40q80 0 114 90l58 -82 q-39 -111 -166 -111q-45 0 -131 40t-129 40q-62 0 -101 -90zM262 309q0 -225 262 -225q115 0 183 37v506q-229 -29 -337 -95.5t-108 -222.5z" />
<glyph unicode="&#xe4;" horiz-adv-x="1021" d="M90 305q0 203 162 293t455 121v67q0 121 -64.5 170.5t-186 49.5t-259.5 -70l-43 106q55 31 145 56.5t193 25.5q170 0 277.5 -85t107.5 -273v-709q-142 -77 -360 -77t-322.5 85t-104.5 240zM260 1351q0 36 27.5 61.5t65.5 25.5t65.5 -26t27.5 -62q0 -37 -26.5 -61.5 t-65.5 -24.5t-66.5 25.5t-27.5 61.5zM262 309q0 -225 262 -225q115 0 183 37v506q-229 -29 -337 -95.5t-108 -222.5zM598 1350q0 37 27.5 62.5t65.5 25.5t65.5 -26t27.5 -62q0 -37 -26.5 -61.5t-66.5 -24.5t-66.5 24.5t-26.5 61.5z" />
<glyph unicode="&#xe5;" horiz-adv-x="1021" d="M90 305q0 203 162 293t455 121v67q0 121 -64.5 170.5t-186 49.5t-259.5 -70l-43 106q55 31 145 56.5t193 25.5q170 0 277.5 -85t107.5 -273v-709q-142 -77 -360 -77t-322.5 85t-104.5 240zM262 309q0 -225 262 -225q115 0 183 37v506q-229 -29 -337 -95.5t-108 -222.5z M356 1385.5q0 68.5 48.5 116.5t117 48t116.5 -48t48 -117t-48 -116.5t-117 -47.5t-117 48t-48 116.5zM424 1386q0 -41 27.5 -68.5t68.5 -27.5t68.5 28t27.5 68q0 41 -27.5 69t-68.5 28t-68.5 -28t-27.5 -69z" />
<glyph unicode="&#xe6;" horiz-adv-x="1646" d="M90 303q0 197 165 292t450 122v69q0 117 -71 169.5t-189 52.5t-246 -68l-41 107q133 77 325 77q241 0 318 -198q51 100 139 149t186 49q203 0 310.5 -134t107.5 -406l-690 -103q0 -186 93 -279t250.5 -93t260.5 59l47 -113q-125 -75 -334 -75q-117 0 -213 53t-153 149 q-92 -203 -330 -202q-195 0 -290 85t-95 238zM254 305q0 -219 229 -219q94 0 158 57.5t64 155.5v322q-238 -29 -344.5 -93.5t-106.5 -222.5zM846 582l526 77q0 349 -254 349q-123 0 -197.5 -105.5t-74.5 -320.5z" />
<glyph unicode="&#xe7;" horiz-adv-x="841" d="M102 555q0 266 117 417.5t307 151.5q159 0 244 -73l-43 -105q-77 53 -164 53q-278 0 -278 -440q0 -201 70.5 -323.5t201.5 -122.5q91 0 168 53l45 -113q-77 -73 -255.5 -73t-295.5 154.5t-117 420.5zM172 -401l41 69q176 0 262 13.5t86 62.5q0 43 -55 54.5t-205 11.5 l41 63q61 6 111 6q243 0 243 -133q0 -88 -127 -117.5t-397 -29.5z" />
<glyph unicode="&#xe8;" horiz-adv-x="1069" d="M102 548.5q0 280.5 122 428t324 147.5t310.5 -134t108.5 -406l-695 -101q0 -184 90.5 -278t249.5 -94t269 63l47 -119q-125 -75 -342 -75t-350.5 144t-133.5 424.5zM266 580l529 79q0 349 -254 349q-127 0 -201 -105.5t-74 -322.5zM299 1503q14 35 66.5 35t75 -7 t51.5 -26l143 -280h-103z" />
<glyph unicode="&#xe9;" horiz-adv-x="1069" d="M102 548.5q0 280.5 122 428t324 147.5t310.5 -134t108.5 -406l-695 -101q0 -184 90.5 -278t249.5 -94t269 63l47 -119q-125 -75 -342 -75t-350.5 144t-133.5 424.5zM266 580l529 79q0 349 -254 349q-127 0 -201 -105.5t-74 -322.5zM463 1225l143 280q57 35 119 35 q61 0 74 -37l-234 -278h-102z" />
<glyph unicode="&#xea;" horiz-adv-x="1069" d="M102 548.5q0 280.5 122 428t324 147.5t310.5 -134t108.5 -406l-695 -101q0 -184 90.5 -278t249.5 -94t269 63l47 -119q-125 -75 -342 -75t-350.5 144t-133.5 424.5zM266 580l529 79q0 349 -254 349q-127 0 -201 -105.5t-74 -322.5zM272 1268l203 205q29 31 68 30 q39 0 69 -30l203 -205l-53 -45l-217 161l-221 -161z" />
<glyph unicode="&#xeb;" horiz-adv-x="1069" d="M102 548.5q0 280.5 122 428t324 147.5t310.5 -134t108.5 -406l-695 -101q0 -184 90.5 -278t249.5 -94t269 63l47 -119q-125 -75 -342 -75t-350.5 144t-133.5 424.5zM266 580l529 79q0 349 -254 349q-127 0 -201 -105.5t-74 -322.5zM287 1350q0 37 27.5 62.5t65.5 25.5 t65.5 -26t27.5 -62q0 -37 -26.5 -61.5t-66.5 -24.5t-66.5 24.5t-26.5 61.5zM625 1350q0 37 27.5 62.5t65.5 25.5t64.5 -24.5t26.5 -62.5t-26.5 -62.5t-65.5 -24.5t-65.5 24.5t-26.5 61.5z" />
<glyph unicode="&#xec;" horiz-adv-x="493" d="M16 1503q14 35 66.5 35t75 -7t51.5 -26l143 -280h-102zM158 0v1104h180v-1104h-180z" />
<glyph unicode="&#xed;" horiz-adv-x="493" d="M141 1225l144 280q57 35 118 35t74 -37l-233 -278h-103zM158 0v1104h180v-1104h-180z" />
<glyph unicode="&#xee;" horiz-adv-x="493" d="M-25 1268l203 205q31 31 69 30.5t68 -30.5l203 -205l-51 -45l-219 161l-219 -161zM158 0v1104h180v-1104h-180z" />
<glyph unicode="&#xef;" horiz-adv-x="493" d="M-14 1351q0 36 27.5 61.5t65.5 25.5t65.5 -26t27.5 -62q0 -37 -26.5 -61.5t-65.5 -24.5t-66.5 25.5t-27.5 61.5zM158 0v1104h180v-1104h-180zM322 1351q0 36 27.5 61.5t65.5 25.5t65.5 -26t27.5 -62q0 -37 -26.5 -61.5t-65.5 -24.5t-66.5 25.5t-27.5 61.5z" />
<glyph unicode="&#xf1;" horiz-adv-x="1091" d="M145 0v1047q158 77 408 77q393 0 393 -319v-805h-180v803q0 205 -231 205q-113 0 -209 -39v-969h-181zM250 1323q20 51 54 81t93 30t139 -40t119 -40q81 0 115 90l57 -82q-39 -111 -165 -111q-43 0 -130.5 40t-127.5 40q-70 0 -101 -90z" />
<glyph unicode="&#xf2;" horiz-adv-x="1067" d="M102 553q0 258 107.5 414.5t324.5 156.5t324 -155.5t107 -415.5t-107.5 -416.5t-322.5 -156.5t-324 157.5t-109 415.5zM281 1503q14 35 77 35t115 -33l143 -280h-100zM283 551q0 -201 54 -324t198 -123q143 0 196 124t53 325t-53 329t-196 128t-197.5 -129t-54.5 -330z " />
<glyph unicode="&#xf3;" horiz-adv-x="1067" d="M102 553q0 258 107.5 414.5t324.5 156.5t324 -155.5t107 -415.5t-107.5 -416.5t-322.5 -156.5t-324 157.5t-109 415.5zM283 551q0 -201 54 -324t198 -123q143 0 196 124t53 325t-53 329t-196 128t-197.5 -129t-54.5 -330zM451 1225l143 280q57 35 119 35q61 0 73 -37 l-233 -278h-102z" />
<glyph unicode="&#xf4;" horiz-adv-x="1067" d="M102 553q0 258 107.5 414.5t324.5 156.5t324 -155.5t107 -415.5t-107.5 -416.5t-322.5 -156.5t-324 157.5t-109 415.5zM262 1268l203 205q29 31 67 30q39 0 70 -30l203 -205l-53 -45l-217 161l-222 -161zM283 551q0 -201 54 -324t198 -123q143 0 196 124t53 325t-53 329 t-196 128t-197.5 -129t-54.5 -330z" />
<glyph unicode="&#xf5;" horiz-adv-x="1067" d="M102 553q0 258 107.5 414.5t324.5 156.5t324 -155.5t107 -415.5t-107.5 -416.5t-322.5 -156.5t-324 157.5t-109 415.5zM240 1323q31 68 66.5 89.5t88.5 21.5t133 -40t119 -40q81 0 115 90l55 -82q-35 -111 -164 -111q-45 0 -131 40t-129 40q-64 0 -100 -90zM283 551 q0 -201 54 -324t198 -123q143 0 196 124t53 325t-53 329t-196 128t-197.5 -129t-54.5 -330z" />
<glyph unicode="&#xf6;" horiz-adv-x="1067" d="M102 553q0 258 107.5 414.5t324.5 156.5t324 -155.5t107 -415.5t-107.5 -416.5t-322.5 -156.5t-324 157.5t-109 415.5zM270 1351q0 36 28 61.5t66 25.5t65.5 -26t27.5 -62q0 -37 -26.5 -61.5t-65.5 -24.5t-67 25.5t-28 61.5zM283 551q0 -201 54 -324t198 -123 q143 0 196 124t53 325t-53 329t-196 128t-197.5 -129t-54.5 -330zM608 1351q0 36 28 61.5t65.5 25.5t65.5 -26t28 -62q0 -37 -27 -61.5t-66 -24.5t-66.5 25.5t-27.5 61.5z" />
<glyph unicode="&#xf7;" d="M147 629v106h787v-106h-787zM438 356q0 43 29 72t73 29t72.5 -29t28.5 -72t-29.5 -72.5t-71.5 -29.5t-72 29.5t-30 72.5zM438 1008q0 43 29 71.5t73 28.5t72.5 -28.5t28.5 -71.5t-29.5 -73t-71.5 -30t-72 30t-30 73z" />
<glyph unicode="&#xf8;" horiz-adv-x="1071" d="M102 535.5q0 277.5 107.5 433t325.5 155.5q147 0 245 -80l90 156l54 -33l-95 -163q140 -152 140 -432.5t-107.5 -436t-324.5 -155.5q-150 0 -252 83l-92 -159l-54 33l99 169q-136 152 -136 429.5zM270 553q0 -192 52 -301l395 680q-65 94 -180 94q-147 0 -207 -136 t-60 -337zM356 184q65 -90 181 -90q147 0 205.5 129t58.5 330q0 195 -51 311z" />
<glyph unicode="&#xf9;" horiz-adv-x="1071" d="M145 338v766h181v-772q0 -102 55 -165t172 -63t192 46v954h181v-1038q-155 -89 -372.5 -89t-313 94.5t-95.5 266.5zM307 1503q14 35 78 35q63 0 115 -33l143 -280h-100z" />
<glyph unicode="&#xfa;" horiz-adv-x="1071" d="M145 338v766h181v-772q0 -102 55 -165t172 -63t192 46v954h181v-1038q-155 -89 -372.5 -89t-313 94.5t-95.5 266.5zM457 1225l143 280q57 35 118.5 35t74.5 -37l-236 -278h-100z" />
<glyph unicode="&#xfb;" horiz-adv-x="1071" d="M145 338v766h181v-772q0 -102 55 -165t172 -63t192 46v954h181v-1038q-155 -89 -372.5 -89t-313 94.5t-95.5 266.5zM266 1268l201 205q31 31 70 30q39 0 69 -30l201 -205l-51 -45l-219 161l-220 -161z" />
<glyph unicode="&#xfc;" horiz-adv-x="1071" d="M145 338v766h181v-772q0 -102 55 -165t172 -63t192 46v954h181v-1038q-155 -89 -372.5 -89t-313 94.5t-95.5 266.5zM274 1350q0 37 28 62.5t66 25.5t64.5 -24.5t26.5 -62.5t-26.5 -62.5t-65.5 -24.5t-66 24.5t-27 61.5zM610 1351q0 36 28 61.5t66 25.5t65.5 -26t27.5 -62 q0 -37 -26.5 -61.5t-65.5 -24.5t-67 25.5t-28 61.5z" />
<glyph unicode="&#xfd;" horiz-adv-x="999" d="M59 1104h193l258 -893l268 893h168l-510 -1544h-190l182 440zM426 1225l143 280q57 35 118.5 35t74.5 -37l-236 -278h-100z" />
<glyph unicode="&#xfe;" d="M145 -440v2048h179v-537q96 49 196 49q217 0 338 -145.5t121 -410.5t-136 -421.5t-349 -156.5q-82 0 -168 24v-450h-181zM326 115q92 -21 133 -21q180 0 261 130t81 333q0 457 -316 457q-90 0 -159 -39v-860z" />
<glyph unicode="&#xff;" horiz-adv-x="999" d="M59 1104h193l258 -893l268 893h168l-510 -1544h-190l182 440zM250 1350q0 37 27.5 62.5t65.5 25.5t65.5 -26t27.5 -62q0 -37 -26.5 -61.5t-66.5 -24.5t-66.5 24.5t-26.5 61.5zM588 1350q0 37 27.5 62.5t65.5 25.5t64.5 -24.5t26.5 -62.5t-26.5 -62.5t-65.5 -24.5 t-65.5 24.5t-26.5 61.5z" />
<glyph unicode="&#x152;" horiz-adv-x="1558" d="M111 706q0 327 140 525.5t421 198.5q92 0 170 -21h624v-127h-465v-491h420v-125h-420v-537h465v-129h-624q-68 -20 -168 -20q-279 0 -421 199.5t-142 526.5zM303 707q0 -246 82 -424.5t293 -178.5q87 0 147 15v1175q-63 18 -147 19q-211 0 -293 -180.5t-82 -425.5z" />
<glyph unicode="&#x153;" horiz-adv-x="1724" d="M102 552q0 257 108.5 414.5t323.5 157.5t328 -227q55 115 145.5 171t196.5 56q207 0 312.5 -132t105.5 -417l-686 -77q20 -231 115.5 -311.5t205 -80.5t167 16.5t114.5 47.5l47 -115q-61 -37 -135 -56t-197 -19q-268 0 -387 251q-94 -252 -334 -251q-213 0 -321.5 157.5 t-108.5 414.5zM279 525q0 -216 69.5 -319.5t183.5 -103.5q150 0 200 131.5t50 323t-49 322.5t-200 131t-202.5 -134.5t-51.5 -350.5zM928 594l520 59q0 184 -65.5 273.5t-187.5 89.5t-194.5 -104.5t-72.5 -317.5z" />
<glyph unicode="&#x178;" horiz-adv-x="1024" d="M35 1409h205l280 -637l295 637h178l-387 -784v-625h-188v625zM258 1638q0 37 27.5 62.5t65.5 25.5t65.5 -25.5t27.5 -62.5t-27.5 -62.5t-65.5 -25.5t-65.5 26t-27.5 62zM596 1637q0 38 27.5 63.5t65.5 25.5t65.5 -25.5t27.5 -62.5t-27.5 -62.5t-66.5 -25.5t-65.5 24.5 t-26.5 62.5z" />
<glyph unicode="&#x2000;" horiz-adv-x="920" />
<glyph unicode="&#x2001;" horiz-adv-x="1841" />
<glyph unicode="&#x2002;" horiz-adv-x="920" />
<glyph unicode="&#x2003;" horiz-adv-x="1841" />
<glyph unicode="&#x2004;" horiz-adv-x="613" />
<glyph unicode="&#x2005;" horiz-adv-x="460" />
<glyph unicode="&#x2006;" horiz-adv-x="306" />
<glyph unicode="&#x2007;" horiz-adv-x="306" />
<glyph unicode="&#x2008;" horiz-adv-x="230" />
<glyph unicode="&#x2009;" horiz-adv-x="368" />
<glyph unicode="&#x200a;" horiz-adv-x="102" />
<glyph unicode="&#x2010;" horiz-adv-x="704" d="M121 618v144h463v-144h-463z" />
<glyph unicode="&#x2011;" horiz-adv-x="704" d="M121 618v144h463v-144h-463z" />
<glyph unicode="&#x2012;" horiz-adv-x="704" d="M121 618v144h463v-144h-463z" />
<glyph unicode="&#x2013;" horiz-adv-x="819" d="M0 625v125h819v-125h-819z" />
<glyph unicode="&#x2014;" horiz-adv-x="1638" d="M0 633v106h1638v-106h-1638z" />
<glyph unicode="&#x2018;" horiz-adv-x="540" d="M113 1102l252 506h94l-164 -506q-35 -51 -113 -51q-56 0 -69 51z" />
<glyph unicode="&#x2019;" horiz-adv-x="540" d="M82 1059l164 506q37 51 112 51q55 0 70 -51l-252 -506h-94z" />
<glyph unicode="&#x201a;" horiz-adv-x="540" d="M82 -346l164 506q35 51 112 51q56 0 70 -51l-252 -506h-94z" />
<glyph unicode="&#x201c;" horiz-adv-x="899" d="M113 1102l252 506h94l-164 -506q-35 -51 -113 -51q-56 0 -69 51zM471 1102l252 506h94l-164 -506q-41 -51 -112 -51q-60 0 -70 51z" />
<glyph unicode="&#x201d;" horiz-adv-x="899" d="M82 1059l164 506q37 51 112 51q55 0 70 -51l-252 -506h-94zM440 1059l164 506q37 51 113 51q54 0 69 -51l-254 -506h-92z" />
<glyph unicode="&#x201e;" horiz-adv-x="899" d="M82 -346l164 506q35 51 112 51q56 0 70 -51l-252 -506h-94zM440 -346l164 506q35 51 113 51q55 0 69 -51l-254 -506h-92z" />
<glyph unicode="&#x2022;" horiz-adv-x="663" d="M139 729q0 80 56.5 136.5t136.5 56.5t136 -56.5t56 -136.5t-56 -136t-136 -56t-136.5 56t-56.5 136z" />
<glyph unicode="&#x2026;" horiz-adv-x="1716" d="M168 107.5q0 50.5 35 85t83 34.5t82.5 -34.5t34.5 -82.5t-34.5 -83t-82.5 -35t-83 32.5t-35 83zM739 107.5q0 50.5 35 85t83 34.5t83 -34.5t35 -83.5t-34 -83t-83 -34t-84 32.5t-35 83zM1311 107.5q0 50.5 34.5 85t84.5 34.5q49 0 83.5 -34.5t34.5 -82.5t-34.5 -83 t-83.5 -35t-84 32.5t-35 83z" />
<glyph unicode="&#x202f;" horiz-adv-x="368" />
<glyph unicode="&#x2039;" horiz-adv-x="675" d="M123 684l309 446l96 -63l-262 -383l262 -383l-96 -63z" />
<glyph unicode="&#x203a;" horiz-adv-x="675" d="M147 301l261 383l-261 383l97 63l309 -446l-309 -446z" />
<glyph unicode="&#x205f;" horiz-adv-x="460" />
<glyph unicode="&#x2122;" horiz-adv-x="1601" d="M94 1331v78h498v-78h-197v-633h-102v633h-199zM641 698l92 711h144l174 -608l172 608h145l90 -711h-98l-74 621l-188 -621h-97l-190 621l-70 -621h-100z" />
<glyph unicode="&#xe000;" horiz-adv-x="1105" d="M0 0v1106h1106v-1106h-1106z" />
</font>
</defs>
</svg>
